<?xml version="1.0" standalone="no"?>
<!DOCTYPE svg PUBLIC "-//W3C//DTD SVG 20010904//EN"
 "http://www.w3.org/TR/2001/REC-SVG-20010904/DTD/svg10.dtd">
<svg version="1.0" xmlns="http://www.w3.org/2000/svg"
 width="440.000000pt" height="128.000000pt" viewBox="0 0 440.000000 128.000000"
 preserveAspectRatio="xMidYMid meet">

<g transform="translate(0.000000,128.000000) scale(0.100000,-0.100000)"
fill="#000000" stroke="none">
<path d="M63 1250 c-12 -5 -27 -18 -33 -29 -7 -14 -10 -195 -8 -594 2 -469 6
-577 17 -590 12 -16 67 -17 601 -17 556 0 588 1 603 18 15 17 17 73 17 599 0
577 0 580 -21 599 -20 18 -46 19 -588 21 -314 1 -576 -2 -588 -7z m1147 -615
l0 -575 -570 0 -570 0 0 575 0 575 570 0 570 0 0 -575z"/>
<path d="M150 1125 c-11 -13 6 -34 106 -135 65 -66 125 -120 133 -120 9 0 -4
-20 -33 -49 -28 -29 -46 -55 -43 -63 3 -8 62 -30 138 -51 106 -29 136 -34 146
-24 9 9 4 40 -25 146 -21 76 -43 136 -51 139 -7 2 -35 -17 -62 -44 -27 -27
-49 -42 -49 -35 0 15 -202 224 -231 241 -12 7 -21 5 -29 -5z m377 -307 c12
-46 20 -84 18 -86 -2 -2 -43 6 -90 19 l-86 22 63 64 c34 34 65 63 68 63 3 0
15 -37 27 -82z"/>
<path d="M684 585 c-4 -8 9 -75 28 -148 41 -154 48 -161 112 -98 l42 42 119
-121 c109 -110 155 -142 155 -107 0 7 -55 68 -123 134 l-122 122 43 45 c24 26
42 52 39 59 -2 6 -55 26 -118 43 -175 47 -169 46 -175 29z m149 -66 l79 -22
-63 -63 c-35 -35 -66 -60 -70 -56 -6 7 -39 133 -39 152 0 13 1 13 93 -11z"/>
<path d="M1519 931 c-25 -25 -29 -37 -29 -81 0 -44 4 -56 29 -81 25 -24 37
-29 81 -29 94 0 138 46 127 133 -9 62 -42 87 -118 87 -54 0 -64 -3 -90 -29z"/>
<path d="M2052 921 c-110 -38 -176 -134 -175 -257 1 -155 69 -223 288 -289
149 -45 189 -75 200 -152 8 -50 -18 -101 -65 -128 -53 -30 -142 -28 -200 6
-56 33 -147 128 -184 191 -15 27 -32 48 -37 48 -8 0 -2 -279 7 -288 1 -2 11 5
22 16 19 19 23 19 88 5 38 -9 121 -16 184 -17 101 -1 120 2 156 21 66 35 101
70 130 129 35 71 38 185 7 254 -37 84 -106 128 -277 176 -98 27 -170 63 -186
94 -28 51 -1 138 50 165 115 59 234 1 333 -162 18 -29 35 -53 40 -53 9 0 7
198 -3 230 -4 14 -8 20 -9 14 -2 -22 -32 -23 -114 -4 -102 25 -186 25 -255 1z"/>
<path d="M3695 646 c-31 -14 -64 -46 -83 -81 -10 -17 -11 -11 -12 33 l0 52
-150 0 c-93 0 -150 -4 -150 -10 0 -5 16 -10 35 -10 l35 0 0 -275 0 -275 -35 0
c-19 0 -35 -4 -35 -10 0 -6 63 -10 170 -10 107 0 170 4 170 10 0 6 -9 10 -20
10 -19 0 -20 7 -20 203 1 210 8 256 46 298 25 28 66 22 75 -11 4 -14 7 -130 8
-257 1 -227 0 -233 -19 -233 -11 0 -20 -4 -20 -10 0 -6 58 -10 155 -10 89 0
155 4 155 9 0 5 -10 11 -22 13 -23 3 -23 3 -23 203 0 209 7 252 46 293 29 32
67 29 76 -5 5 -16 8 -131 8 -258 l0 -230 -22 -3 c-13 -2 -23 -8 -23 -13 0 -5
72 -9 170 -9 107 0 170 4 170 10 0 6 -16 10 -35 10 l-35 0 0 223 c0 211 -1
225 -22 267 -33 63 -66 83 -141 88 -80 4 -142 -25 -172 -80 -21 -39 -35 -49
-35 -24 0 21 -47 74 -81 91 -35 18 -124 19 -164 1z"/>
<path d="M1420 640 c0 -5 16 -10 35 -10 l35 0 0 -275 0 -275 -35 0 c-19 0 -35
-4 -35 -10 0 -6 68 -10 185 -10 117 0 185 4 185 10 0 6 -16 10 -35 10 l-35 0
0 285 0 285 -150 0 c-93 0 -150 -4 -150 -10z"/>
<path d="M2550 641 c0 -6 15 -11 33 -13 l32 -3 5 -237 c5 -219 7 -239 26 -264
37 -50 68 -66 136 -71 81 -7 128 8 167 52 33 38 41 36 41 -12 l0 -33 140 0
c87 0 140 4 140 10 0 6 -13 10 -30 10 l-30 0 0 285 0 285 -145 0 c-90 0 -145
-4 -145 -10 0 -5 14 -10 30 -10 l30 0 -1 -212 c0 -232 -6 -268 -51 -301 -22
-17 -32 -18 -51 -10 -34 16 -37 42 -37 309 l0 234 -145 0 c-83 0 -145 -4 -145
-9z"/>
</g>
</svg>
